<svg width="20" height="21" viewBox="0 0 20 21" fill="none" xmlns="http://www.w3.org/2000/svg">
<g id="campaign">
<mask id="mask0_859_210" style="mask-type:alpha" maskUnits="userSpaceOnUse" x="0" y="0" width="20" height="21">
<rect id="Bounding box" y="0.5" width="20" height="20" fill="#D9D9D9"/>
</mask>
<g mask="url(#mask0_859_210)">
<path id="campaign_2" d="M14.9998 11.3333V9.66665H18.3332V11.3333H14.9998ZM15.9998 17.1666L13.3332 15.1666L14.3332 13.8333L16.9998 15.8333L15.9998 17.1666ZM14.3332 7.16665L13.3332 5.83331L15.9998 3.83331L16.9998 5.16665L14.3332 7.16665ZM4.1665 16.3333V13H3.33317C2.87484 13 2.48248 12.8368 2.15609 12.5104C1.8297 12.184 1.6665 11.7916 1.6665 11.3333V9.66665C1.6665 9.20831 1.8297 8.81595 2.15609 8.48956C2.48248 8.16317 2.87484 7.99998 3.33317 7.99998H6.6665L10.8332 5.49998V15.5L6.6665 13H5.83317V16.3333H4.1665ZM9.1665 12.5416V8.45831L7.12484 9.66665H3.33317V11.3333H7.12484L9.1665 12.5416ZM11.6665 13.2916V7.70831C12.0415 8.04165 12.3436 8.4479 12.5728 8.92706C12.8019 9.40623 12.9165 9.93053 12.9165 10.5C12.9165 11.0694 12.8019 11.5937 12.5728 12.0729C12.3436 12.5521 12.0415 12.9583 11.6665 13.2916Z" fill="white"/>
</g>
</g>
</svg>
