<svg width="15" height="16" viewBox="0 0 15 16" fill="none" xmlns="http://www.w3.org/2000/svg">
<g id="diversity_2">
<mask id="mask0_34_2352" style="mask-type:alpha" maskUnits="userSpaceOnUse" x="0" y="0" width="15" height="16">
<rect id="Bounding box" y="0.5" width="15" height="15" fill="#D9D9D9"/>
</mask>
<g mask="url(#mask0_34_2352)">
<path id="diversity_2_2" d="M5.46875 14.5155C4.98958 14.5155 4.5599 14.3905 4.17969 14.1405C3.79948 13.8905 3.50521 13.5468 3.29688 13.1093C3.13021 13.328 2.91927 13.4973 2.66406 13.6171C2.40885 13.7369 2.14583 13.7968 1.875 13.7968C1.34375 13.7968 0.898438 13.6145 0.539062 13.2499C0.179688 12.8853 0 12.4426 0 11.9218C0 11.4738 0.145833 11.0702 0.4375 10.7108C0.729167 10.3514 1.09896 10.1457 1.54688 10.0936C1.40104 9.88529 1.28906 9.66394 1.21094 9.42956C1.13281 9.19519 1.09375 8.94779 1.09375 8.68738C1.09375 8.27071 1.20052 7.88009 1.41406 7.5155C1.6276 7.15092 1.92708 6.85404 2.3125 6.62488C2.36458 6.81238 2.4349 7.0129 2.52344 7.22644C2.61198 7.43998 2.71354 7.62488 2.82812 7.78113C2.68229 7.89571 2.56771 8.03373 2.48438 8.19519C2.40104 8.35665 2.35938 8.52592 2.35938 8.703C2.35938 9.28633 2.59896 9.64571 3.07812 9.78113C3.55729 9.91654 4.01042 10.0259 4.4375 10.1093L4.73438 10.6093C4.61979 10.9426 4.52083 11.2264 4.4375 11.4608C4.35417 11.6952 4.3125 11.9061 4.3125 12.0936C4.3125 12.4061 4.42448 12.6796 4.64844 12.9139C4.8724 13.1483 5.14583 13.2655 5.46875 13.2655C5.86458 13.2655 6.19271 13.0884 6.45312 12.7343C6.71354 12.3801 6.92708 11.9634 7.09375 11.4843C7.26042 11.0051 7.38802 10.5207 7.47656 10.0311C7.5651 9.54154 7.63542 9.16654 7.6875 8.90613L8.90625 9.23425C8.8125 9.703 8.69792 10.2395 8.5625 10.8436C8.42708 11.4478 8.23698 12.0233 7.99219 12.5702C7.7474 13.1171 7.42448 13.578 7.02344 13.953C6.6224 14.328 6.10417 14.5155 5.46875 14.5155ZM1.875 12.5468C2.05208 12.5468 2.20052 12.4869 2.32031 12.3671C2.4401 12.2473 2.5 12.0988 2.5 11.9218C2.5 11.7447 2.4401 11.5962 2.32031 11.4764C2.20052 11.3566 2.05208 11.2968 1.875 11.2968C1.69792 11.2968 1.54948 11.3566 1.42969 11.4764C1.3099 11.5962 1.25 11.7447 1.25 11.9218C1.25 12.0988 1.3099 12.2473 1.42969 12.3671C1.54948 12.4869 1.69792 12.5468 1.875 12.5468ZM6.3125 10.078C5.83333 9.65092 5.39844 9.25248 5.00781 8.88269C4.61719 8.5129 4.28125 8.15352 4 7.80456C3.71875 7.45561 3.5026 7.10665 3.35156 6.75769C3.20052 6.40873 3.125 6.04675 3.125 5.67175C3.125 4.99467 3.35677 4.42436 3.82031 3.96082C4.28385 3.49727 4.85417 3.2655 5.53125 3.2655C5.57292 3.2655 5.60938 3.26811 5.64063 3.27332C5.67188 3.27852 5.70833 3.28113 5.75 3.28113C5.70833 3.17696 5.67708 3.07279 5.65625 2.96863C5.63542 2.86446 5.625 2.75509 5.625 2.6405C5.625 2.11967 5.80729 1.67696 6.17188 1.31238C6.53646 0.947795 6.97917 0.765503 7.5 0.765503C8.02083 0.765503 8.46354 0.947795 8.82812 1.31238C9.19271 1.67696 9.375 2.11967 9.375 2.6405C9.375 2.75509 9.36458 2.86186 9.34375 2.96082C9.32292 3.05977 9.29167 3.16134 9.25 3.2655H9.46875C10.0938 3.2655 10.625 3.46602 11.0625 3.86707C11.5 4.26811 11.7604 4.7655 11.8438 5.35925C11.6562 5.328 11.4453 5.31238 11.2109 5.31238C10.9766 5.31238 10.7604 5.32279 10.5625 5.34363C10.4896 5.10404 10.3568 4.90613 10.1641 4.74988C9.97135 4.59363 9.73958 4.5155 9.46875 4.5155C9.10417 4.5155 8.82031 4.62227 8.61719 4.83582C8.41406 5.04936 8.13542 5.35925 7.78125 5.7655H7.20313C6.83854 5.33842 6.55469 5.02331 6.35156 4.82019C6.14844 4.61707 5.875 4.5155 5.53125 4.5155C5.19792 4.5155 4.92188 4.62488 4.70312 4.84363C4.48438 5.06238 4.375 5.33842 4.375 5.67175C4.375 5.91134 4.44271 6.15873 4.57812 6.41394C4.71354 6.66915 4.90365 6.93998 5.14844 7.22644C5.39323 7.5129 5.6901 7.81759 6.03906 8.1405C6.38802 8.46342 6.77604 8.81238 7.20313 9.18738L6.3125 10.078ZM7.5 3.2655C7.67708 3.2655 7.82552 3.20561 7.94531 3.08582C8.0651 2.96602 8.125 2.81759 8.125 2.6405C8.125 2.46342 8.0651 2.31498 7.94531 2.19519C7.82552 2.0754 7.67708 2.0155 7.5 2.0155C7.32292 2.0155 7.17448 2.0754 7.05469 2.19519C6.9349 2.31498 6.875 2.46342 6.875 2.6405C6.875 2.81759 6.9349 2.96602 7.05469 3.08582C7.17448 3.20561 7.32292 3.2655 7.5 3.2655ZM9.51562 14.5155C9.28646 14.5155 9.0599 14.4843 8.83594 14.4218C8.61198 14.3593 8.39583 14.2603 8.1875 14.1249C8.30208 13.979 8.41667 13.8072 8.53125 13.6093C8.64583 13.4113 8.75 13.229 8.84375 13.0624C8.95833 13.1353 9.07292 13.1874 9.1875 13.2186C9.30208 13.2499 9.41667 13.2655 9.53125 13.2655C9.86458 13.2655 10.1432 13.1483 10.3672 12.9139C10.5911 12.6796 10.7031 12.4009 10.7031 12.078C10.7031 11.8801 10.6615 11.6665 10.5781 11.4374C10.4948 11.2082 10.3958 10.927 10.2812 10.5936L10.5781 10.0936C11.0156 10.0103 11.4714 9.90092 11.9453 9.7655C12.4193 9.63009 12.6562 9.27071 12.6562 8.68738C12.6562 8.27071 12.5026 7.96863 12.1953 7.78113C11.888 7.59363 11.5521 7.49988 11.1875 7.49988C10.75 7.49988 10.2396 7.58321 9.65625 7.74988C9.07292 7.91654 8.39062 8.13009 7.60938 8.3905L7.28125 7.17175C8.09375 6.91134 8.81771 6.69259 9.45312 6.5155C10.0885 6.33842 10.6719 6.24988 11.2031 6.24988C11.9219 6.24988 12.5521 6.46342 13.0938 6.8905C13.6354 7.31759 13.9062 7.91654 13.9062 8.68738C13.9062 8.94779 13.8672 9.19519 13.7891 9.42956C13.7109 9.66394 13.599 9.88529 13.4531 10.0936C13.901 10.1457 14.2708 10.3514 14.5625 10.7108C14.8542 11.0702 15 11.4738 15 11.9218C15 12.4426 14.8203 12.8853 14.4609 13.2499C14.1016 13.6145 13.6562 13.7968 13.125 13.7968C12.8542 13.7968 12.5911 13.7369 12.3359 13.6171C12.0807 13.4973 11.8698 13.328 11.7031 13.1093C11.4948 13.5468 11.2005 13.8905 10.8203 14.1405C10.4401 14.3905 10.0052 14.5155 9.51562 14.5155ZM13.1406 12.5468C13.3177 12.5468 13.4635 12.4869 13.5781 12.3671C13.6927 12.2473 13.75 12.0988 13.75 11.9218C13.75 11.7447 13.6901 11.5936 13.5703 11.4686C13.4505 11.3436 13.3021 11.2811 13.125 11.2811C12.9479 11.2811 12.7995 11.341 12.6797 11.4608C12.5599 11.5806 12.5 11.729 12.5 11.9061C12.5 12.0832 12.5625 12.2343 12.6875 12.3593C12.8125 12.4843 12.9635 12.5468 13.1406 12.5468Z" fill="#685B50"/>
</g>
</g>
</svg>
