<svg width="15" height="16" viewBox="0 0 15 16" fill="none" xmlns="http://www.w3.org/2000/svg">
<g id="phone_iphone">
<mask id="mask0_32_987" style="mask-type:alpha" maskUnits="userSpaceOnUse" x="0" y="0" width="15" height="16">
<rect id="Bounding box" y="0.5" width="15" height="15" fill="#D9D9D9"/>
</mask>
<g mask="url(#mask0_32_987)">
<path id="phone_iphone_2" d="M4.125 14.7507C3.81562 14.7507 3.55078 14.6406 3.33047 14.4203C3.11016 14.2 3 13.9351 3 13.6257V2.37573C3 2.06636 3.11016 1.80151 3.33047 1.5812C3.55078 1.36089 3.81562 1.25073 4.125 1.25073H10.875C11.1844 1.25073 11.4492 1.36089 11.6695 1.5812C11.8898 1.80151 12 2.06636 12 2.37573V13.6257C12 13.9351 11.8898 14.2 11.6695 14.4203C11.4492 14.6406 11.1844 14.7507 10.875 14.7507H4.125ZM4.125 11.3757V13.6257H10.875V11.3757H4.125ZM7.4967 13.0632C7.65515 13.0632 7.78906 13.0096 7.89844 12.9025C8.00781 12.7953 8.0625 12.6625 8.0625 12.504C8.0625 12.3456 8.00891 12.2117 7.90173 12.1023C7.79455 11.9929 7.66173 11.9382 7.5033 11.9382C7.34485 11.9382 7.21094 11.9918 7.10156 12.099C6.99219 12.2062 6.9375 12.339 6.9375 12.4974C6.9375 12.6559 6.99109 12.7898 7.09826 12.8992C7.20545 13.0085 7.33826 13.0632 7.4967 13.0632ZM4.125 10.2507H10.875V4.25073H4.125V10.2507ZM4.125 3.12573H10.875V2.37573H4.125V3.12573Z" fill="#685B50"/>
</g>
</g>
</svg>
