<svg width="20" height="21" viewBox="0 0 20 21" fill="none" xmlns="http://www.w3.org/2000/svg">
<g id="splitscreen">
<mask id="mask0_859_221" style="mask-type:alpha" maskUnits="userSpaceOnUse" x="0" y="0" width="20" height="21">
<rect id="Bounding box" y="0.5" width="20" height="20" fill="#D9D9D9"/>
</mask>
<g mask="url(#mask0_859_221)">
<path id="splitscreen_2" d="M4.16667 9.66667C3.70833 9.66667 3.31597 9.50347 2.98958 9.17708C2.66319 8.85069 2.5 8.45833 2.5 8V4.66667C2.5 4.20833 2.66319 3.81597 2.98958 3.48958C3.31597 3.16319 3.70833 3 4.16667 3H15.8333C16.2917 3 16.684 3.16319 17.0104 3.48958C17.3368 3.81597 17.5 4.20833 17.5 4.66667V8C17.5 8.45833 17.3368 8.85069 17.0104 9.17708C16.684 9.50347 16.2917 9.66667 15.8333 9.66667H4.16667ZM4.16667 8H15.8333V4.66667H4.16667V8ZM4.16667 18C3.70833 18 3.31597 17.8368 2.98958 17.5104C2.66319 17.184 2.5 16.7917 2.5 16.3333V13C2.5 12.5417 2.66319 12.1493 2.98958 11.8229C3.31597 11.4965 3.70833 11.3333 4.16667 11.3333H15.8333C16.2917 11.3333 16.684 11.4965 17.0104 11.8229C17.3368 12.1493 17.5 12.5417 17.5 13V16.3333C17.5 16.7917 17.3368 17.184 17.0104 17.5104C16.684 17.8368 16.2917 18 15.8333 18H4.16667ZM4.16667 16.3333H15.8333V13H4.16667V16.3333Z" fill="white"/>
</g>
</g>
</svg>
