<svg width="39" height="68" viewBox="0 0 39 68" fill="none" xmlns="http://www.w3.org/2000/svg">
<g filter="url(#filter0_d_1356_15897)">
<path d="M28.3996 62.0703C26.166 62.0703 24.1505 60.5809 23.3869 58.363L14.629 32.9614L5.87103 7.55984C5.38257 6.14551 5.44659 4.61603 6.04887 3.25427C6.65115 1.89 7.72055 0.856167 9.06027 0.343004C9.64832 0.117712 10.2625 0.00256348 10.8837 0.00256348C13.1174 0.00256348 15.1329 1.49199 15.8964 3.70986L33.4123 54.5131C33.9008 55.9274 33.8367 57.4569 33.2345 58.8186C32.6322 60.1829 31.5628 61.2167 30.2231 61.7299C29.635 61.9552 29.0209 62.0703 28.3996 62.0703Z" fill="white"/>
</g>
<defs>
<filter id="filter0_d_1356_15897" x="0.545898" y="-4.99744" width="38.1914" height="72.0677" filterUnits="userSpaceOnUse" color-interpolation-filters="sRGB">
<feFlood flood-opacity="0" result="BackgroundImageFix"/>
<feColorMatrix in="SourceAlpha" type="matrix" values="0 0 0 0 0 0 0 0 0 0 0 0 0 0 0 0 0 0 127 0" result="hardAlpha"/>
<feOffset/>
<feGaussianBlur stdDeviation="2.5"/>
<feComposite in2="hardAlpha" operator="out"/>
<feColorMatrix type="matrix" values="0 0 0 0 0 0 0 0 0 0 0 0 0 0 0 0 0 0 0.35 0"/>
<feBlend mode="normal" in2="BackgroundImageFix" result="effect1_dropShadow_1356_15897"/>
<feBlend mode="normal" in="SourceGraphic" in2="effect1_dropShadow_1356_15897" result="shape"/>
</filter>
</defs>
</svg>
