<svg width="16" height="16" viewBox="0 0 16 16" fill="none" xmlns="http://www.w3.org/2000/svg">
<mask id="mask0_481_2040" style="mask-type:alpha" maskUnits="userSpaceOnUse" x="0" y="0" width="16" height="16">
<rect x="0.5" y="0.346741" width="15" height="15" fill="#D9D9D9"/>
</mask>
<g mask="url(#mask0_481_2040)">
<path d="M3.875 11.1436C4.45833 10.6644 5.10417 10.3077 5.8125 10.0733C6.52083 9.83893 7.25 9.72174 8 9.72174C8.75 9.72174 9.47917 9.83632 10.1875 10.0655C10.8958 10.2947 11.5417 10.654 12.125 11.1436V3.72174H3.875V11.1436ZM8.00378 8.97174C8.62626 8.97174 9.15625 8.75173 9.59375 8.31171C10.0312 7.87168 10.25 7.34043 10.25 6.71796C10.25 6.09548 10.03 5.56549 9.58997 5.12799C9.14994 4.69049 8.61869 4.47174 7.99622 4.47174C7.37374 4.47174 6.84375 4.69175 6.40625 5.13177C5.96875 5.5718 5.75 6.10305 5.75 6.72552C5.75 7.348 5.97001 7.87799 6.41003 8.31549C6.85006 8.75299 7.38131 8.97174 8.00378 8.97174ZM3.875 13.0967C3.56563 13.0967 3.30078 12.9866 3.08047 12.7663C2.86016 12.546 2.75 12.2811 2.75 11.9717V3.72174C2.75 3.41237 2.86016 3.14752 3.08047 2.92721C3.30078 2.7069 3.56563 2.59674 3.875 2.59674H12.125C12.4344 2.59674 12.6992 2.7069 12.9195 2.92721C13.1398 3.14752 13.25 3.41237 13.25 3.72174V11.9717C13.25 12.2811 13.1398 12.546 12.9195 12.7663C12.6992 12.9866 12.4344 13.0967 12.125 13.0967H3.875ZM4.64063 11.9717H11.3594C10.8802 11.6072 10.3542 11.3285 9.78125 11.1358C9.20833 10.9431 8.61458 10.8467 8 10.8467C7.38542 10.8467 6.79427 10.9431 6.22656 11.1358C5.65885 11.3285 5.13021 11.6072 4.64063 11.9717ZM8 7.84674C7.6875 7.84674 7.42188 7.73737 7.20312 7.51862C6.98438 7.29987 6.875 7.03424 6.875 6.72174C6.875 6.40924 6.98438 6.14362 7.20312 5.92487C7.42188 5.70612 7.6875 5.59674 8 5.59674C8.3125 5.59674 8.57812 5.70612 8.79688 5.92487C9.01562 6.14362 9.125 6.40924 9.125 6.72174C9.125 7.03424 9.01562 7.29987 8.79688 7.51862C8.57812 7.73737 8.3125 7.84674 8 7.84674Z" fill="#222222"/>
</g>
</svg>
