<svg width="20" height="21" viewBox="0 0 20 21" fill="none" xmlns="http://www.w3.org/2000/svg">
<path d="M15.8333 18.9158H4.16667C3.24619 18.9158 2.5 18.1696 2.5 17.2491V5.58245C2.5 4.66197 3.24619 3.91578 4.16667 3.91578H5.83333V2.24911H7.5V3.91578H12.5V2.24911H14.1667V3.91578H15.8333C16.7538 3.91578 17.5 4.66197 17.5 5.58245V17.2491C17.5 18.1696 16.7538 18.9158 15.8333 18.9158ZM4.16667 8.91578V17.2491H15.8333V8.91578H4.16667ZM4.16667 5.58245V7.24911H15.8333V5.58245H4.16667ZM14.1667 15.5824H12.5V13.9158H14.1667V15.5824ZM10.8333 15.5824H9.16667V13.9158H10.8333V15.5824ZM7.5 15.5824H5.83333V13.9158H7.5V15.5824ZM14.1667 12.2491H12.5V10.5824H14.1667V12.2491ZM10.8333 12.2491H9.16667V10.5824H10.8333V12.2491ZM7.5 12.2491H5.83333V10.5824H7.5V12.2491Z" fill="#685B50"/>
</svg>
