<svg width="19" height="21" viewBox="0 0 19 21" fill="none" xmlns="http://www.w3.org/2000/svg">
<g id="contacts">
<path id="contacts_2" d="M1.81818 20.5V18.6818H16.3636V20.5H1.81818ZM1.81818 2.31818V0.5H16.3636V2.31818H1.81818ZM9.09091 11.4091C9.84848 11.4091 10.4924 11.1439 11.0227 10.6136C11.553 10.0833 11.8182 9.43939 11.8182 8.68182C11.8182 7.92424 11.553 7.2803 11.0227 6.75C10.4924 6.2197 9.84848 5.95455 9.09091 5.95455C8.33333 5.95455 7.68939 6.2197 7.15909 6.75C6.62879 7.2803 6.36364 7.92424 6.36364 8.68182C6.36364 9.43939 6.62879 10.0833 7.15909 10.6136C7.68939 11.1439 8.33333 11.4091 9.09091 11.4091ZM1.81818 17.7727C1.31818 17.7727 0.890152 17.5947 0.534091 17.2386C0.17803 16.8826 0 16.4545 0 15.9545V5.04545C0 4.54545 0.17803 4.11742 0.534091 3.76136C0.890152 3.4053 1.31818 3.22727 1.81818 3.22727H16.3636C16.8636 3.22727 17.2917 3.4053 17.6477 3.76136C18.0038 4.11742 18.1818 4.54545 18.1818 5.04545V15.9545C18.1818 16.4545 18.0038 16.8826 17.6477 17.2386C17.2917 17.5947 16.8636 17.7727 16.3636 17.7727H1.81818ZM3.40909 15.9545C4.09091 15.1061 4.91667 14.4394 5.88636 13.9545C6.85606 13.4697 7.92424 13.2273 9.09091 13.2273C10.2576 13.2273 11.3258 13.4697 12.2955 13.9545C13.2652 14.4394 14.0909 15.1061 14.7727 15.9545H16.3636V5.04545H1.81818V15.9545H3.40909ZM6.09091 15.9545H12.0909C11.6515 15.6515 11.178 15.4242 10.6705 15.2727C10.1629 15.1212 9.63636 15.0455 9.09091 15.0455C8.54545 15.0455 8.01894 15.1212 7.51136 15.2727C7.00379 15.4242 6.5303 15.6515 6.09091 15.9545ZM9.09091 9.59091C8.83333 9.59091 8.61742 9.50379 8.44318 9.32955C8.26894 9.1553 8.18182 8.93939 8.18182 8.68182C8.18182 8.42424 8.26894 8.20833 8.44318 8.03409C8.61742 7.85985 8.83333 7.77273 9.09091 7.77273C9.34848 7.77273 9.56439 7.85985 9.73864 8.03409C9.91288 8.20833 10 8.42424 10 8.68182C10 8.93939 9.91288 9.1553 9.73864 9.32955C9.56439 9.50379 9.34848 9.59091 9.09091 9.59091Z" fill="white"/>
</g>
</svg>
