<svg width="16" height="16" viewBox="0 0 16 16" fill="none" xmlns="http://www.w3.org/2000/svg">
<g id="data_saver_on">
<mask id="mask0_2180_6573" style="mask-type:alpha" maskUnits="userSpaceOnUse" x="0" y="0" width="16" height="16">
<rect id="Bounding box" width="16" height="16" fill="#D9D9D9"/>
</mask>
<g mask="url(#mask0_2180_6573)">
<path id="data_saver_on_2" d="M8.00016 14.6672C7.07794 14.6672 6.21127 14.4922 5.40016 14.1422C4.58905 13.7922 3.8835 13.3144 3.2835 12.7089C2.6835 12.1033 2.2085 11.395 1.8585 10.5839C1.5085 9.77274 1.3335 8.91163 1.3335 8.00052C1.3335 6.25608 1.91127 4.75608 3.06683 3.50052C4.22239 2.24497 5.64461 1.53385 7.3335 1.36719V3.36719C6.18905 3.52274 5.23627 4.03663 4.47516 4.90885C3.71405 5.78108 3.3335 6.81163 3.3335 8.00052C3.3335 9.28941 3.78905 10.3894 4.70016 11.3005C5.61127 12.2116 6.71127 12.6672 8.00016 12.6672C8.7335 12.6672 9.41961 12.5116 10.0585 12.2005C10.6974 11.8894 11.2335 11.4672 11.6668 10.9339L13.4002 11.9339C12.8002 12.7672 12.0279 13.4311 11.0835 13.9255C10.1391 14.42 9.11127 14.6672 8.00016 14.6672ZM7.3335 10.6672V8.66719H5.3335V7.33385H7.3335V5.33385H8.66683V7.33385H10.6668V8.66719H8.66683V10.6672H7.3335ZM14.1002 10.7005L12.3668 9.70052C12.4668 9.43385 12.5418 9.15885 12.5918 8.87552C12.6418 8.59219 12.6668 8.30052 12.6668 8.00052C12.6668 6.81163 12.2863 5.78108 11.5252 4.90885C10.7641 4.03663 9.81127 3.52274 8.66683 3.36719V1.36719C10.3557 1.53385 11.7779 2.24497 12.9335 3.50052C14.0891 4.75608 14.6668 6.25608 14.6668 8.00052C14.6668 8.48941 14.6224 8.96163 14.5335 9.41719C14.4446 9.87274 14.3002 10.3005 14.1002 10.7005Z" fill="white"/>
</g>
</g>
</svg>
