<svg width="18" height="19" viewBox="0 0 18 19" fill="none" xmlns="http://www.w3.org/2000/svg">
<g id="edit">
<mask id="mask0_564_1242" style="mask-type:alpha" maskUnits="userSpaceOnUse" x="0" y="0" width="18" height="19">
<rect id="Bounding box" y="0.0625" width="18" height="18" fill="#D9D9D9"/>
</mask>
<g mask="url(#mask0_564_1242)">
<path id="edit_2" d="M3.75 14.3125H4.81875L12.15 6.98125L11.0813 5.9125L3.75 13.2437V14.3125ZM2.25 15.8125V12.625L12.15 2.74375C12.3 2.60625 12.4656 2.5 12.6469 2.425C12.8281 2.35 13.0188 2.3125 13.2188 2.3125C13.4187 2.3125 13.6125 2.35 13.8 2.425C13.9875 2.5 14.15 2.6125 14.2875 2.7625L15.3188 3.8125C15.4688 3.95 15.5781 4.1125 15.6469 4.3C15.7156 4.4875 15.75 4.675 15.75 4.8625C15.75 5.0625 15.7156 5.25312 15.6469 5.43437C15.5781 5.61562 15.4688 5.78125 15.3188 5.93125L5.4375 15.8125H2.25ZM11.6063 6.45625L11.0813 5.9125L12.15 6.98125L11.6063 6.45625Z" fill="white"/>
</g>
</g>
</svg>
