<svg width="18" height="19" viewBox="0 0 18 19" fill="none" xmlns="http://www.w3.org/2000/svg">
<g id="event_busy">
<mask id="mask0_132_12279" style="mask-type:alpha" maskUnits="userSpaceOnUse" x="0" y="0" width="18" height="19">
<rect id="Bounding box" y="0.212463" width="18" height="18" fill="#D9D9D9"/>
</mask>
<g mask="url(#mask0_132_12279)">
<path id="event_busy_2" d="M7.275 14.2375L6.225 13.1875L7.95 11.4625L6.225 9.73746L7.275 8.68746L9 10.4125L10.725 8.68746L11.775 9.73746L10.05 11.4625L11.775 13.1875L10.725 14.2375L9 12.5125L7.275 14.2375ZM3.75 16.7125C3.3375 16.7125 2.98438 16.5656 2.69063 16.2718C2.39687 15.9781 2.25 15.625 2.25 15.2125V4.71246C2.25 4.29996 2.39687 3.94684 2.69063 3.65309C2.98438 3.35934 3.3375 3.21246 3.75 3.21246H4.5V1.71246H6V3.21246H12V1.71246H13.5V3.21246H14.25C14.6625 3.21246 15.0156 3.35934 15.3094 3.65309C15.6031 3.94684 15.75 4.29996 15.75 4.71246V15.2125C15.75 15.625 15.6031 15.9781 15.3094 16.2718C15.0156 16.5656 14.6625 16.7125 14.25 16.7125H3.75ZM3.75 15.2125H14.25V7.71246H3.75V15.2125ZM3.75 6.21246H14.25V4.71246H3.75V6.21246Z" fill="#222222"/>
</g>
</g>
</svg>
