<svg width="15" height="16" viewBox="0 0 15 16" fill="none" xmlns="http://www.w3.org/2000/svg">
<g id="mail">
<mask id="mask0_32_999" style="mask-type:alpha" maskUnits="userSpaceOnUse" x="0" y="0" width="15" height="16">
<rect id="Bounding box" y="0.5" width="15" height="15" fill="#D9D9D9"/>
</mask>
<g mask="url(#mask0_32_999)">
<path id="mail_2" d="M2.625 12.5C2.31563 12.5 2.05078 12.3898 1.83047 12.1693C1.61016 11.9489 1.5 11.6839 1.5 11.3744V4.62058C1.5 4.31103 1.61016 4.04688 1.83047 3.82812C2.05078 3.60937 2.31563 3.5 2.625 3.5H12.375C12.6844 3.5 12.9492 3.61022 13.1695 3.83066C13.3898 4.05109 13.5 4.31608 13.5 4.62562V11.3794C13.5 11.689 13.3898 11.9531 13.1695 12.1719C12.9492 12.3906 12.6844 12.5 12.375 12.5H2.625ZM7.5 8.75L2.625 5.95312V11.375H12.375V5.95312L7.5 8.75ZM7.5 7.42188L12.375 4.625H2.625L7.5 7.42188ZM2.625 5.95312V4.625V11.375V5.95312Z" fill="#685B50"/>
</g>
</g>
</svg>
