<svg width="22" height="22" viewBox="0 0 22 22" fill="none" xmlns="http://www.w3.org/2000/svg">
<rect width="22" height="22" rx="11" fill="#253C5B"/>
<path d="M7.45776 14.9455C7.20765 14.9455 6.99355 14.8541 6.81544 14.6714C6.63733 14.4887 6.54828 14.269 6.54828 14.0125V12.1464C6.54828 11.8898 6.63733 11.6702 6.81544 11.4875C6.99355 11.3047 7.20765 11.2134 7.45776 11.2134H13.8242C14.0743 11.2134 14.2884 11.3047 14.4665 11.4875C14.6446 11.6702 14.7336 11.8898 14.7336 12.1464H7.45776V14.0125H12.0052V14.9455H7.45776ZM7.45776 10.2804C7.20765 10.2804 6.99355 10.189 6.81544 10.0063C6.63733 9.82357 6.54828 9.60392 6.54828 9.34734V7.4813C6.54828 7.22472 6.63733 7.00507 6.81544 6.82235C6.99355 6.63964 7.20765 6.54828 7.45776 6.54828H13.8242C14.0743 6.54828 14.2884 6.63964 14.4665 6.82235C14.6446 7.00507 14.7336 7.22472 14.7336 7.4813V9.34734C14.7336 9.60392 14.6446 9.82357 14.4665 10.0063C14.2884 10.189 14.0743 10.2804 13.8242 10.2804H7.45776ZM7.45776 9.34734H13.8242V7.4813H7.45776V9.34734ZM13.8242 15.8785V14.9455H12.9147V14.0125H13.8242V13.0794H14.7336V14.0125H15.6431V14.9455H14.7336V15.8785H13.8242Z" fill="white"/>
</svg>
