<svg width="21" height="21" viewBox="0 0 21 21" fill="none" xmlns="http://www.w3.org/2000/svg">
<mask id="mask0_111_6564" style="mask-type:alpha" maskUnits="userSpaceOnUse" x="0" y="0" width="21" height="21">
<rect x="0.5" y="0.5" width="20" height="20" fill="#D9D9D9"/>
</mask>
<g mask="url(#mask0_111_6564)">
<path d="M4.66667 18C4.20833 18 3.81597 17.8368 3.48958 17.5104C3.16319 17.184 3 16.7917 3 16.3333V4.66667C3 4.20833 3.16319 3.81597 3.48958 3.48958C3.81597 3.16319 4.20833 3 4.66667 3H10.5V4.66667H4.66667V16.3333H16.3333V10.5H18V16.3333C18 16.7917 17.8368 17.184 17.5104 17.5104C17.184 17.8368 16.7917 18 16.3333 18H4.66667ZM8.58333 13.5833L7.41667 12.4167L15.1667 4.66667H12.1667V3H18V8.83333H16.3333V5.83333L8.58333 13.5833Z" fill="#A5978B"/>
</g>
</svg>
