<svg width="15" height="16" viewBox="0 0 15 16" fill="none" xmlns="http://www.w3.org/2000/svg">
<g id="sell">
<mask id="mask0_481_2045" style="mask-type:alpha" maskUnits="userSpaceOnUse" x="0" y="0" width="15" height="16">
<rect id="Bounding box" y="0.346741" width="15" height="15" fill="#D9D9D9"/>
</mask>
<g mask="url(#mask0_481_2045)">
<path id="sell_2" d="M8.90625 13.7217C8.66667 13.9613 8.36979 14.0811 8.01562 14.0811C7.66146 14.0811 7.36458 13.9613 7.125 13.7217L1.625 8.22174C1.51042 8.10716 1.41927 7.97174 1.35156 7.81549C1.28385 7.65924 1.25 7.49257 1.25 7.31549V2.84674C1.25 2.50299 1.3724 2.20872 1.61719 1.96393C1.86198 1.71914 2.15625 1.59674 2.5 1.59674H6.96875C7.14583 1.59674 7.3125 1.63059 7.46875 1.6983C7.625 1.76601 7.76042 1.85716 7.875 1.97174L13.375 7.48737C13.6146 7.72695 13.7344 8.02122 13.7344 8.37018C13.7344 8.71914 13.6146 9.01341 13.375 9.25299L8.90625 13.7217ZM8.01562 12.8467L12.4844 8.37799L6.96875 2.84674H2.5V7.31549L8.01562 12.8467ZM4.0625 5.34674C4.32292 5.34674 4.54427 5.25559 4.72656 5.0733C4.90885 4.89101 5 4.66966 5 4.40924C5 4.14882 4.90885 3.92747 4.72656 3.74518C4.54427 3.56289 4.32292 3.47174 4.0625 3.47174C3.80208 3.47174 3.58073 3.56289 3.39844 3.74518C3.21615 3.92747 3.125 4.14882 3.125 4.40924C3.125 4.66966 3.21615 4.89101 3.39844 5.0733C3.58073 5.25559 3.80208 5.34674 4.0625 5.34674Z" fill="#222222"/>
</g>
</g>
</svg>
