<svg width="21" height="21" viewBox="0 0 21 21" fill="none" xmlns="http://www.w3.org/2000/svg">
<mask id="mask0_111_6627" style="mask-type:alpha" maskUnits="userSpaceOnUse" x="0" y="0" width="21" height="21">
<rect x="0.5" y="0.5" width="20" height="20" fill="#222222"/>
</mask>
<g mask="url(#mask0_111_6627)">
<path d="M4.66667 9.66667C4.20833 9.66667 3.81597 9.50347 3.48958 9.17708C3.16319 8.85069 3 8.45833 3 8V4.66667C3 4.20833 3.16319 3.81597 3.48958 3.48958C3.81597 3.16319 4.20833 3 4.66667 3H16.3333C16.7917 3 17.184 3.16319 17.5104 3.48958C17.8368 3.81597 18 4.20833 18 4.66667V8C18 8.45833 17.8368 8.85069 17.5104 9.17708C17.184 9.50347 16.7917 9.66667 16.3333 9.66667H4.66667ZM4.66667 8H16.3333V4.66667H4.66667V8ZM4.66667 18C4.20833 18 3.81597 17.8368 3.48958 17.5104C3.16319 17.184 3 16.7917 3 16.3333V13C3 12.5417 3.16319 12.1493 3.48958 11.8229C3.81597 11.4965 4.20833 11.3333 4.66667 11.3333H16.3333C16.7917 11.3333 17.184 11.4965 17.5104 11.8229C17.8368 12.1493 18 12.5417 18 13V16.3333C18 16.7917 17.8368 17.184 17.5104 17.5104C17.184 17.8368 16.7917 18 16.3333 18H4.66667ZM4.66667 16.3333H16.3333V13H4.66667V16.3333Z" fill="#253C5B"/>
</g>
</svg>
