<svg width="21" height="21" viewBox="0 0 21 21" fill="none" xmlns="http://www.w3.org/2000/svg">
<mask id="mask0_111_6630" style="mask-type:alpha" maskUnits="userSpaceOnUse" x="0" y="0" width="21" height="21">
<rect x="0.5" y="0.5" width="20" height="20" fill="#D9D9D9"/>
</mask>
<g mask="url(#mask0_111_6630)">
<path d="M4.66667 16.3333H12.1667V12.1667H16.3333V4.66667H4.66667V16.3333ZM4.66667 18C4.20833 18 3.81597 17.8368 3.48958 17.5104C3.16319 17.184 3 16.7917 3 16.3333V4.66667C3 4.20833 3.16319 3.81597 3.48958 3.48958C3.81597 3.16319 4.20833 3 4.66667 3H16.3333C16.7917 3 17.184 3.16319 17.5104 3.48958C17.8368 3.81597 18 4.20833 18 4.66667V13L13 18H4.66667ZM6.33333 12.1667V10.5H10.5V12.1667H6.33333ZM6.33333 8.83333V7.16667H14.6667V8.83333H6.33333Z" fill="#A5978B"/>
</g>
</svg>
