<svg width="18" height="19" viewBox="0 0 18 19" fill="none" xmlns="http://www.w3.org/2000/svg">
<g id="delete">
<mask id="mask0_564_1237" style="mask-type:alpha" maskUnits="userSpaceOnUse" x="0" y="0" width="18" height="19">
<rect id="Bounding box" y="0.0625" width="18" height="18" fill="#D9D9D9"/>
</mask>
<g mask="url(#mask0_564_1237)">
<path id="delete_2" d="M5.25 15.8125C4.8375 15.8125 4.48438 15.6656 4.19062 15.3719C3.89687 15.0781 3.75 14.725 3.75 14.3125V4.5625H3V3.0625H6.75V2.3125H11.25V3.0625H15V4.5625H14.25V14.3125C14.25 14.725 14.1031 15.0781 13.8094 15.3719C13.5156 15.6656 13.1625 15.8125 12.75 15.8125H5.25ZM12.75 4.5625H5.25V14.3125H12.75V4.5625ZM6.75 12.8125H8.25V6.0625H6.75V12.8125ZM9.75 12.8125H11.25V6.0625H9.75V12.8125Z" fill="#685B50"/>
</g>
</g>
</svg>
